<?xml version="1.0" encoding="UTF-8"?> <svg xmlns="http://www.w3.org/2000/svg" version="1.1" width="2209" height="319"><path d="M0 0 C24.88507181 23.0472441 38.51527858 55.99190358 39.875 89.6875 C41.17190377 127.33823771 31.18465299 163.20930946 5.20703125 191.22265625 C4.05267578 192.44275391 4.05267578 192.44275391 2.875 193.6875 C2.11574219 194.51121094 1.35648438 195.33492187 0.57421875 196.18359375 C-24.44872123 222.43515599 -62.05410284 234.9087504 -97.6875 235.87890625 C-139.0135392 236.52273264 -178.2971533 225.15955635 -208.80834961 196.40478516 C-232.87821896 172.92484443 -246.60444223 139.41550452 -247.328125 105.9140625 C-247.47536399 91.62437805 -247.39461691 77.67184959 -244.125 63.6875 C-243.96402832 62.98447754 -243.80305664 62.28145508 -243.63720703 61.55712891 C-236.29203311 30.75820079 -216.86647857 2.74642637 -189.97607422 -14.18896484 C-131.97043274 -49.396293 -51.26843956 -45.92187372 0 0 Z M-143.125 60.6875 C-154.34333665 75.6452822 -155.92569295 93.430774 -153.65234375 111.4296875 C-150.70068501 126.1703066 -142.68481566 138.68325629 -130.36328125 147.375 C-118.37631136 154.40400852 -105.65635447 156.56764338 -92.0625 153.5625 C-78.57674922 149.74710506 -68.67921876 141.79263631 -61.25 129.9375 C-55.59387574 119.36068134 -53.78550454 109.84903457 -53.6875 98 C-53.67726807 97.05020264 -53.66703613 96.10040527 -53.65649414 95.12182617 C-53.84073539 80.23435981 -59.39671098 66.63767115 -69.7109375 55.875 C-79.41004039 47.0861689 -92.62941657 42.22319606 -105.703125 42.4765625 C-120.73801066 43.78605254 -132.96968955 49.45773691 -143.125 60.6875 Z " fill="#FF3B5B" transform="translate(494.125,61.3125)"></path><path d="M0 0 C68.31 0 136.62 0 207 0 C207 64.84450063 207 64.84450063 191.5 82.5 C187.76452962 86.78085772 184.07535269 91.08338786 180.5 95.5 C176.38106834 100.58809206 172.09852666 105.52003823 167.796875 110.453125 C164.63520769 114.08756499 161.53142528 117.75529818 158.5 121.5 C154.42242873 126.53348541 150.19494085 131.42333309 145.94189453 136.30810547 C141.0212235 141.96264879 136.17218901 147.67472086 131.34277344 153.40722656 C129.52375806 155.56490953 127.70063503 157.71910094 125.87719727 159.87304688 C124.96590777 160.94959947 124.0549328 162.02641839 123.14428711 163.10351562 C120.74561107 165.94039061 118.34259065 168.77344426 115.93359375 171.6015625 C115.18142578 172.48618164 115.18142578 172.48618164 114.4140625 173.38867188 C113.45311341 174.51867682 112.49093696 175.64763956 111.52734375 176.77539062 C109.53414221 179.12155494 107.71057757 181.43413365 106 184 C140.32 184 174.64 184 210 184 C210 208.75 210 233.5 210 259 C139.38 259 68.76 259 -4 259 C-4 185 -4 185 5 175 C7.17057858 172.35061732 9.34054928 169.70069133 11.49609375 167.0390625 C14.37987673 163.53893276 17.33601435 160.10879321 20.3125 156.6875 C20.86357422 156.05400635 21.41464844 155.4205127 21.98242188 154.76782227 C23.10162485 153.48168345 24.22092837 152.19563212 25.34033203 150.90966797 C31.4607846 143.86727609 37.56030337 136.80997199 43.4375 129.5625 C47.53979949 124.51066283 51.78701978 119.5969402 56.06005859 114.68994141 C60.04567681 110.11059712 63.98623639 105.49640062 67.89697266 100.85302734 C70.28472067 98.02023856 72.68467884 95.19916893 75.10546875 92.39453125 C75.63003662 91.78617432 76.15460449 91.17781738 76.69506836 90.55102539 C77.68753331 89.40148638 78.68166841 88.25338575 79.67797852 87.10717773 C83.637589 82.51789597 87.26181752 77.80623462 91 73 C60.97 73 30.94 73 0 73 C0 48.91 0 24.82 0 0 Z " fill="#FF3B5B" transform="translate(10,31)"></path><path d="M0 0 C13.53 0 27.06 0 41 0 C46.72240803 17.72000091 52.07924739 35.53476197 57.36330795 53.38864517 C58.55736525 57.42128967 59.75399524 61.45317059 60.95043945 65.48510742 C62.70096652 71.38491534 64.45082119 77.28492182 66.19980526 83.18518734 C69.44313469 94.12629975 72.69262662 105.06557206 75.9453125 116.00390625 C76.18776388 116.81924458 76.43021526 117.6345829 76.68001366 118.47462845 C77.88415629 122.52392284 79.08839822 126.5731877 80.29269409 130.62243652 C82.28024449 137.30538404 84.26700626 143.98856599 86.2537899 150.67174149 C87.29725077 154.18172477 88.34076665 157.69169169 89.38427734 161.20166016 C89.80792263 162.62664787 90.23156765 164.05163566 90.6552124 165.47662354 C90.98044514 166.57058819 90.98044514 166.57058819 91.31224823 167.68665314 C95.20816549 180.79110209 99.10408274 193.89555105 103 207 C106.32365318 199.04994096 109.1089815 190.95250501 111.82177734 182.77758789 C112.29200411 181.36798315 112.76249102 179.95846516 113.23321533 178.54902649 C114.50521633 174.73784571 115.7734845 170.92543248 117.04098845 167.11275411 C118.3857273 163.06965545 119.73368911 159.02763137 121.08120728 154.98545837 C123.35452483 148.16456987 125.62552601 141.3429137 127.89501953 134.52075195 C130.19500838 127.60696696 132.49697708 120.693846 134.80126953 113.78149414 C151.16141815 64.80961208 151.16141815 64.80961208 167.15145874 15.71607971 C167.40630917 14.92540415 167.66115959 14.13472858 167.92373276 13.32009315 C168.38289211 11.89509551 168.83953497 10.46928288 169.29288101 9.04242516 C170.3269299 5.83834898 171.48413454 3.03173092 173 0 C185.21 0 197.42 0 210 0 C214.49924225 11.24810563 214.49924225 11.24810563 215.79248047 15.16625977 C216.08791245 16.05589417 216.38334442 16.94552856 216.68772888 17.86212158 C216.99445023 18.79578552 217.30117157 19.72944946 217.6171875 20.69140625 C217.95053604 21.69701599 218.28388458 22.70262573 218.62733459 23.7387085 C219.34108941 25.89233862 220.05356524 28.04639299 220.76486206 30.20083618 C222.66818071 35.9643699 224.58197876 41.7244194 226.49609375 47.484375 C226.88106522 48.64322708 227.26603668 49.80207916 227.66267395 50.99604797 C231.03079144 61.12123794 234.47073663 71.22074391 237.9375 81.3125 C243.38442215 97.17779827 248.7091608 113.08201197 254 129 C259.56803386 145.74880873 265.16977681 162.48487127 270.875 179.1875 C271.16213867 180.02917725 271.44927734 180.87085449 271.74511719 181.73803711 C272.55516399 184.11102263 273.3669925 186.48338902 274.1796875 188.85546875 C274.40808319 189.52394333 274.63647888 190.19241791 274.87179565 190.88114929 C276.84156913 196.61398763 278.91668615 202.30757824 281 208 C281.22010239 207.24914627 281.44020477 206.49829254 281.66697693 205.72468567 C297.08167026 153.14109434 312.50411992 100.55973377 328 48 C328.21064087 47.28547668 328.42128174 46.57095337 328.63830566 45.83477783 C330.95413825 37.97982287 333.27378902 30.12601713 335.60302734 22.27502441 C336.194256 20.28111623 336.78444992 18.28690089 337.37353516 16.2923584 C338.15212266 13.65749879 338.93472263 11.02387011 339.71875 8.390625 C340.05114685 7.26158752 340.05114685 7.26158752 340.39025879 6.10974121 C341.88532571 1.11467429 341.88532571 1.11467429 343 0 C345.95705321 -0.08868299 348.89065056 -0.11520296 351.84765625 -0.09765625 C353.17729652 -0.09553383 353.17729652 -0.09553383 354.53379822 -0.09336853 C357.37673254 -0.08775215 360.21958931 -0.07519691 363.0625 -0.0625 C364.98502491 -0.05748711 366.90755104 -0.05292384 368.83007812 -0.04882812 C373.55341549 -0.03777741 378.27669458 -0.02050183 383 0 C382.43542099 4.55427662 381.59313101 8.74780578 380.18432617 13.11303711 C379.80768829 14.28996124 379.43105042 15.46688538 379.04299927 16.67947388 C378.62637385 17.96211387 378.20969532 19.24473661 377.79296875 20.52734375 C377.35588486 21.88726426 376.91936556 23.24736634 376.48336792 24.6076355 C375.54791953 27.5230625 374.60924721 30.43742293 373.66799927 33.35098267 C371.39221424 40.39686252 369.13404216 47.44839483 366.87511253 54.49969292 C366.35737647 56.11562742 365.83944203 57.73149838 365.32131386 59.34730721 C360.3562938 74.83219632 355.49277782 90.34742311 350.66483688 105.87550354 C342.78340368 131.22063621 334.74946459 156.5147777 326.64987183 181.79098511 C319.96308311 202.65934588 313.34567907 223.54612049 306.89501953 244.48901367 C306.63184937 245.34179398 306.3686792 246.19457428 306.09753418 247.07319641 C305.61693022 248.63166936 305.13788594 250.19062457 304.6607666 251.75016785 C303.11121979 256.77756043 303.11121979 256.77756043 302 259 C288.14 259 274.28 259 260 259 C257.52164706 252.80411765 255.14833688 246.72610005 253.08447266 240.40454102 C252.81936827 239.6013443 252.55426388 238.79814758 252.28112602 237.97061157 C251.40577399 235.31601982 250.53492525 232.65997379 249.6640625 230.00390625 C249.03409779 228.09064021 248.40384108 226.17747029 247.77331543 224.26438904 C246.0735081 219.10436158 244.3775686 213.9430708 242.68247223 208.78149414 C240.90858058 203.38168629 239.13169823 197.98286286 237.35498047 192.58398438 C235.14766398 185.87631282 232.94057334 179.1685677 230.7348938 172.46035767 C225.95455956 157.92400022 221.15685225 143.39348472 216.34581375 128.86726189 C214.26691908 122.58912573 212.19036213 116.31021586 210.1136837 110.03134632 C208.46035281 105.03321702 206.80549004 100.03560516 205.14727783 95.03909302 C203.59265826 90.35452595 202.04215421 85.6686165 200.4947052 80.9816761 C199.92910551 79.2710975 199.36198654 77.56102035 198.79319763 75.85149956 C193.51541096 59.98474258 193.51541096 59.98474258 192 52 C191.34 52 190.68 52 190 52 C189.75266113 53.2279126 189.50532227 54.4558252 189.25048828 55.72094727 C187.90215804 61.7697372 185.9502416 67.59049805 183.9921875 73.46484375 C183.38289765 75.31185667 182.77361184 77.15887092 182.1644907 79.00593948 C181.51738698 80.96570815 180.86824908 82.92479235 180.21853638 84.88369751 C178.15572309 91.10434768 176.10659131 97.32950837 174.05758095 103.55471611 C173.59356607 104.964436 173.1294121 106.37411012 172.66512108 107.78373909 C168.38873306 120.76946878 164.20511491 133.78346681 160.0625 146.8125 C153.14917657 168.54056826 146.05823894 190.20859039 138.92341518 211.86471272 C138.06252589 214.47790449 137.20210157 217.09124914 136.34187889 219.70466042 C135.72252254 221.58604949 135.10275706 223.46730387 134.48298645 225.34855652 C131.61033145 234.08789048 128.80029863 242.84571795 126.07054138 251.63079834 C125.80951126 252.46323059 125.54848114 253.29566284 125.27954102 254.15332031 C125.05476578 254.87722961 124.82999054 255.60113892 124.59840393 256.34698486 C124 258 124 258 123 259 C119.89748799 259.08874135 116.8173188 259.11518455 113.71484375 259.09765625 C112.78402481 259.0962413 111.85320587 259.09482635 110.8941803 259.09336853 C107.90858809 259.08775172 104.92306971 259.0751964 101.9375 259.0625 C99.91862087 259.05748716 97.89974057 259.05292388 95.88085938 259.04882812 C90.92054428 259.03777683 85.96028468 259.02050095 81 259 C74.16994021 237.86638112 67.37486485 216.72186756 60.625 195.5625 C60.27449648 194.46409979 60.27449648 194.46409979 59.91691208 193.34350967 C52.6821016 170.67028266 45.53254306 147.97190833 38.45874023 125.24797821 C29.87021942 97.65998043 21.09450166 70.13307201 12.27888489 42.61689758 C11.38301765 39.82036101 10.48798037 37.02356125 9.59379578 34.22648621 C7.74167509 28.43361082 5.88624304 22.64200343 4.00683594 16.85791016 C3.44983957 15.1305436 2.89287061 13.40316821 2.3359375 11.67578125 C2.09034088 10.929832 1.84474426 10.18388275 1.59170532 9.41532898 C0.51545603 6.05965422 0 3.5723614 0 0 Z " fill="#FF3B5B" transform="translate(562,31)"></path><path d="M0 0 C28.88372088 23.79916055 42.53394831 54.21569106 46.640625 91.17578125 C46.640625 101.73578125 46.640625 112.29578125 46.640625 123.17578125 C-23.979375 123.17578125 -94.599375 123.17578125 -167.359375 123.17578125 C-164.0270585 146.50199674 -159.62589203 165.30368078 -144.359375 183.17578125 C-143.92625 183.75199219 -143.493125 184.32820312 -143.046875 184.921875 C-130.01534255 201.71548676 -106.39752929 212.24486873 -85.80078125 214.8984375 C-59.43863259 217.02296934 -34.56102391 211.41558535 -13.609375 194.80078125 C-5.35679824 187.72714403 2.05964212 180.56816706 7.640625 171.17578125 C11.35725793 172.81573439 14.40634398 175.18247394 17.578125 177.67578125 C18.72648229 178.56911353 19.87492241 179.46233935 21.0234375 180.35546875 C21.90950684 181.04721191 21.90950684 181.04721191 22.81347656 181.75292969 C25.84888827 184.11668963 28.90175612 186.45768261 31.953125 188.80078125 C33.05346649 189.64703001 34.15373452 190.49337431 35.25390625 191.33984375 C36.04152344 191.94570312 36.82914063 192.5515625 37.640625 193.17578125 C35.39046302 197.26494604 32.63084603 200.60362615 29.453125 203.98828125 C28.95973633 204.51671631 28.46634766 205.04515137 27.95800781 205.58959961 C26.9693557 206.64466573 25.97836108 207.69754241 24.98486328 208.74804688 C23.86640892 209.93597297 22.7649589 211.13988096 21.66796875 212.34765625 C-1.06519613 236.52974813 -35.59593078 248.33276482 -68.15625 249.37890625 C-107.12726989 249.99345528 -141.07626659 238.41291671 -169.359375 211.17578125 C-170.32617188 210.30373047 -170.32617188 210.30373047 -171.3125 209.4140625 C-195.72165741 186.77285808 -206.52318344 151.2364048 -208.26171875 119.01220703 C-209.57549082 80.85369735 -197.52586279 44.09658977 -171.39453125 15.9609375 C-164.07741161 8.26676278 -156.24492003 1.96196355 -147.359375 -3.82421875 C-146.43125 -4.448125 -145.503125 -5.07203125 -144.546875 -5.71484375 C-131.39195717 -14.01141124 -115.68811545 -19.41541668 -100.359375 -21.82421875 C-99.29750977 -21.99477783 -98.23564453 -22.16533691 -97.14160156 -22.34106445 C-63.73265943 -26.60883469 -27.17299531 -20.94924039 0 0 Z M-141.359375 36.17578125 C-142.51759766 37.31466797 -142.51759766 37.31466797 -143.69921875 38.4765625 C-149.94489505 44.99982441 -154.22782768 52.22980099 -158.359375 60.17578125 C-158.8440625 61.06910156 -159.32875 61.96242187 -159.828125 62.8828125 C-164.13590423 71.43270359 -167.359375 82.55041404 -167.359375 92.17578125 C-109.609375 92.17578125 -51.859375 92.17578125 7.640625 92.17578125 C5.67835226 66.66623568 -2.04682356 45.27071781 -20.86328125 27.26953125 C-56.31470823 -2.46750296 -109.92358731 5.25788133 -141.359375 36.17578125 Z " fill="#FF3B5B" transform="translate(1854.359375,47.82421875)"></path><path d="M0 0 C0.79325684 0.19867676 1.58651367 0.39735352 2.40380859 0.60205078 C13.69023493 3.49239783 24.04394665 7.39191147 34.24072266 13.02832031 C35.88139109 13.93449022 37.53975335 14.80841751 39.19921875 15.6796875 C47.3550821 20.13609388 54.16571772 25.76991431 61 32 C62.31484375 33.18916016 62.31484375 33.18916016 63.65625 34.40234375 C89.5778629 59.05248513 102.07754452 94.26550886 102.99609375 129.4765625 C103.39015128 169.67043011 89.46863179 204.90056619 61.4765625 233.5859375 C38.92919382 254.93477495 5.94251153 268.07056286 -25 269 C-25.73847168 269.02578125 -26.47694336 269.0515625 -27.23779297 269.078125 C-63.7629643 270.20176034 -99.94121937 261.3849632 -128 237 C-128.88042969 236.26394531 -129.76085938 235.52789062 -130.66796875 234.76953125 C-156.75911392 212.21117866 -170.65788257 178.91284146 -173.6015625 145.01611328 C-176.20221134 106.90388718 -165.86934793 70.28920118 -141 41 C-107.29471672 2.5774512 -49.24717758 -12.86971323 0 0 Z M-99 52 C-99.89203125 52.79921875 -100.7840625 53.5984375 -101.703125 54.421875 C-122.14533585 73.7220629 -131.97931818 100.48030324 -133.22265625 128.27734375 C-134.10347384 159.28690249 -123.78650187 187.97979006 -102.6875 210.75 C-83.3227325 229.02889269 -57.59629357 236.73416304 -31.41796875 236.18359375 C-5.17130847 235.27386021 18.29557606 224.58904407 36.375 205.625 C55.60689836 183.37139585 63.96250642 153.06648128 62 124 C59.24032154 94.92049344 47.68258378 68.11952231 25 49 C-10.82484087 21.62957828 -65.04307592 21.15024545 -99 52 Z " fill="#FF3B5B" transform="translate(1163,28)"></path><path d="M0 0 C0.66959747 0.00337372 1.33919495 0.00674744 2.02908325 0.01022339 C27.7463235 0.19678755 51.91612543 6.74396076 70.46044922 25.54394531 C85.80584399 41.87823206 94.25859219 64.39616522 96.8125 86.4375 C96.93617777 87.48841434 96.93617777 87.48841434 97.06235409 88.56055927 C97.95657376 97.07758178 97.94660229 105.55754588 97.92602539 114.1081543 C97.9257428 115.76492816 97.92590265 117.42170216 97.9264679 119.07847595 C97.92675307 123.54463542 97.9209017 128.01076766 97.91389394 132.47692084 C97.9076137 137.15606531 97.90705292 141.83521049 97.90586853 146.51435852 C97.90276893 155.3609068 97.89457412 164.20744261 97.88451904 173.05398542 C97.8733152 183.13143522 97.86783672 193.20888563 97.86282361 203.28634012 C97.85239028 224.0034019 97.83406195 244.72044661 97.8125 265.4375 C84.9425 265.4375 72.0725 265.4375 58.8125 265.4375 C58.79062622 258.27885254 58.79062622 258.27885254 58.76831055 250.97558594 C58.7178149 235.14978105 58.6513406 219.32407244 58.57678509 203.49836349 C58.53199863 193.9098903 58.49254542 184.32145283 58.46606445 174.73291016 C58.44294441 166.36639668 58.40939301 157.99999791 58.36379844 149.63357568 C58.34005315 145.2119153 58.32120296 140.79036719 58.31488609 136.36864471 C58.83415712 89.63330884 58.83415712 89.63330884 37.1953125 49.65625 C23.15868461 36.58607845 4.89238438 32.43074453 -13.890625 33.09375 C-33.81799492 34.36532329 -50.48826442 43.21314237 -64.3125 57.5 C-82.54068127 78.94712088 -87.46128467 107.3770743 -87.50634766 134.65625 C-87.51568071 136.09702088 -87.52585417 137.53778652 -87.53678894 138.97854614 C-87.56372329 142.83283666 -87.57912762 146.68709145 -87.59221697 150.5414505 C-87.60801048 154.59066294 -87.63474751 158.639804 -87.6602478 162.68896484 C-87.70675195 170.33117053 -87.74363186 177.97339009 -87.77692068 185.61566353 C-87.81534444 194.32691696 -87.86470043 203.03809821 -87.91490483 211.74929047 C-88.01780203 229.64531327 -88.10575519 247.54136721 -88.1875 265.4375 C-101.0575 265.4375 -113.9275 265.4375 -127.1875 265.4375 C-127.19780746 262.48770203 -127.20811493 259.53790405 -127.21873474 256.49871826 C-127.31395618 229.37154184 -127.41380363 202.24438492 -127.51861694 175.11724399 C-127.53238449 171.55293493 -127.54611189 167.98862572 -127.55981445 164.42431641 C-127.56254276 163.71480568 -127.56527106 163.00529496 -127.56808204 162.27428392 C-127.61200946 150.82588557 -127.65269342 139.37747793 -127.69215261 127.92906341 C-127.7327945 116.15874357 -127.77698247 104.38844078 -127.82437855 92.61814618 C-127.85086126 86.01674619 -127.87565695 79.41534703 -127.89657402 72.8139267 C-127.91636023 66.58579697 -127.94056467 60.35769924 -127.96799088 54.12959862 C-127.97724639 51.8578494 -127.98496125 49.58609322 -127.99091911 47.31433296 C-128.02781624 33.65224394 -128.40445644 20.07879713 -129.1875 6.4375 C-116.9775 6.4375 -104.7675 6.4375 -92.1875 6.4375 C-91.1208707 10.70401718 -90.8602172 14.77395331 -90.65234375 19.140625 C-90.60936661 19.97841492 -90.56638947 20.81620483 -90.52210999 21.67938232 C-90.38603585 24.34858274 -90.25544709 27.01801925 -90.125 29.6875 C-90.03356493 31.50001829 -89.94177222 33.31251857 -89.84960938 35.125 C-89.62475975 39.56230196 -89.40482847 43.99982357 -89.1875 48.4375 C-88.73656982 47.70869629 -88.28563965 46.97989258 -87.82104492 46.22900391 C-73.97598172 24.11436654 -52.21934084 8.88249584 -26.87719727 2.61938477 C-17.86703705 0.64016916 -9.25268469 -0.07429291 0 0 Z " fill="#FF3B5B" transform="translate(2107.1875,24.5625)"></path><path d="M0 0 C21.6063747 16.97426052 31.86241969 42.35184891 35.57491684 68.96188736 C36.41805081 76.16546996 36.26070582 83.4126471 36.22705078 90.65380859 C36.22648525 92.37998956 36.226806 94.106171 36.22793579 95.83235168 C36.22850476 100.47397979 36.21682509 105.11550249 36.20278788 109.7571063 C36.19020373 114.62441173 36.189104 119.49172012 36.18673706 124.35903931 C36.18054472 133.55612283 36.16416459 142.75315826 36.14403808 151.9502207 C36.1216088 162.42917841 36.11066805 172.90813852 36.10064721 183.38711429 C36.07979614 204.92477558 36.04314828 226.46237104 36 248 C23.46 248 10.92 248 -2 248 C-2.01981934 243.46991211 -2.03963867 238.93982422 -2.06005859 234.27246094 C-2.12719683 219.24495055 -2.20473652 204.21750683 -2.28752708 189.19007492 C-2.33743434 180.08588045 -2.38387774 170.98169402 -2.421875 161.87744141 C-2.45504143 153.93285139 -2.49500411 145.98832803 -2.54279006 138.04381204 C-2.56781292 133.84573738 -2.58966235 129.64770554 -2.60334396 125.44957733 C-1.48510547 75.185024 -1.48510547 75.185024 -24 32 C-39.26292503 18.91066836 -57.27129448 14.72820669 -76.97900391 15.83154297 C-96.58810017 17.46602913 -113.69455308 26.8516617 -126.64697266 41.38085938 C-139.85694246 57.18896471 -146.41228755 78.86818596 -148.11474609 99.12915039 C-148.1976206 100.10872491 -148.28049511 101.08829943 -148.36588097 102.09755802 C-149.37551932 115.30889909 -149.35566183 128.55239903 -149.40471697 141.79441714 C-149.42063564 145.54463357 -149.44732947 149.29477524 -149.4727478 153.04493713 C-149.51903818 160.10608626 -149.55601834 167.16725028 -149.58942068 174.22847086 C-149.62799974 182.28452062 -149.67731255 190.34049438 -149.72740483 198.39647949 C-149.8299823 214.93093627 -149.91806158 231.4654261 -150 248 C-162.54 248 -175.08 248 -188 248 C-188.0154612 243.86290245 -188.0154612 243.86290245 -188.03123474 239.64222717 C-188.1292348 213.53132488 -188.23210603 187.42044492 -188.33933926 161.3095789 C-188.35034821 158.62476165 -188.36133866 155.93994433 -188.37231445 153.25512695 C-188.37640691 152.25429291 -188.37640691 152.25429291 -188.38058204 151.23324 C-188.42164253 141.1712072 -188.46016571 131.10916715 -188.49731445 121.04711914 C-188.54056484 109.33352099 -188.58693726 97.6199398 -188.63687855 85.9063682 C-188.66315563 79.71870808 -188.68799204 73.53105061 -188.70907402 67.34337044 C-188.79911405 41.20787947 -189.05036189 15.1201174 -190 -11 C-177.79 -11 -165.58 -11 -153 -11 C-152.01 2.53 -151.02 16.06 -150 30 C-147.03 25.71 -144.06 21.42 -141 17 C-107.15175886 -20.563292 -41.69707618 -31.22606153 0 0 Z " fill="#FF3B5B" transform="translate(1533,42)"></path></svg> 