<?xml version="1.0" encoding="UTF-8"?>
<svg id="Layer_2" data-name="Layer 2" xmlns="http://www.w3.org/2000/svg" viewBox="0 0 583.85 127.96">
  <defs>
    <style>
      .cls-1 {
        fill: #41a38f;
      }

      .cls-2 {
        fill: #504f4e;
      }
    </style>
  </defs>
  <g id="Laag_1" data-name="Laag 1">
    <g>
      <rect class="cls-2" x="206.2" y=".02" width="2.31" height="126.82"/>
      <path class="cls-2" d="M535.18,54.61h10.72v-22.98c0-5.17-.08-8.95-.54-13.73h.15c3.62,4.78,6.63,8.56,9.64,12.19l21.06,25.22h7.64V0h-10.8v21.6c0,5.17.08,8.87.62,13.73h-.23c-3.55-4.86-6.48-8.48-9.41-12.19l-18.97-23.14h-9.87v54.61ZM490.68,0v54.61h33.09l1.08-9.33h-23.37v-13.96h21.21v-9.02h-21.21v-12.96h23.37l-1.08-9.33h-33.09ZM443.94,44.89V9.72h5.32c14.11,0,20.75,5.4,20.75,17.28s-6.79,17.89-20.9,17.89h-5.17ZM433.14,54.61h16.74c19.59,0,31.31-10.26,31.31-27.53S470.08,0,449.95,0h-16.81v54.61ZM398.28,40.95l-1.31-.39-8.48,3.47c1.85,7.25,8.25,12.03,16.74,12.03,10.49,0,16.43-6.86,16.43-19.2V0h-10.8v36.64c0,6.63-2.31,9.64-6.33,9.64-3.24,0-5.32-1.85-6.25-5.32M370.59,54.61h10.8V0h-10.8v54.61ZM326.09,0v54.61h33.09l1.08-9.33h-23.37v-13.96h21.21v-9.02h-21.21v-12.96h23.37l-1.08-9.33h-33.09ZM262.07,55.3h8.95l8.1-25.45c1-3.09,2-6.4,3.01-9.95h.31c1.08,3.55,2.08,6.86,3.09,10.03l8.02,25.38h8.95L319.3,0h-11.88l-7.1,27.3c-.93,3.47-1.93,7.4-2.85,11.88h-.23c-1.16-4.17-2.31-8.02-3.47-11.95L285.37.31h-6.17l-8.41,26.92c-1.16,3.93-2.31,7.79-3.47,11.95h-.23c-.93-4.47-1.93-8.41-2.85-11.88l-7.1-27.3h-11.88l16.81,55.3Z"/>
      <g>
        <polygon class="cls-1" points="36.43 100.12 0 .02 0 .02 24.75 .02 61.18 100.12 36.43 100.12"/>
        <polygon class="cls-2" points="180.48 26.52 155.67 26.52 119.16 126.84 143.96 126.84 180.48 26.52"/>
        <polygon class="cls-1" points="74.85 .02 99.6 .02 136.03 100.12 111.28 100.12 74.85 .02"/>
        <polygon class="cls-2" points="105.46 26.52 80.66 26.52 44.14 126.84 68.95 126.84 105.46 26.52"/>
        <polygon class="cls-2" points="142.63 26.52 117.83 26.52 81.31 126.84 106.12 126.84 142.63 26.52"/>
        <polygon class="cls-1" points="37.76 .02 62.51 .02 98.94 100.12 74.19 100.12 37.76 .02"/>
      </g>
      <path class="cls-2" d="M570.99,102.97c4.59,0,7.66,2.84,7.97,7.54h-16.29c.72-4.77,3.92-7.54,8.33-7.54M583.79,114.26c.06-.48.06-.66.06-1.03,0-9.11-5.13-14.36-12.85-14.36s-13.4,5.79-13.4,14.6,5.55,14.48,13.7,14.48c5.25,0,9.47-2.47,12.19-7.06l-3.32-2.23-.48.12c-2.23,3.44-4.71,5.01-8.21,5.01-5.07,0-8.99-3.5-8.99-9.29v-.24h21.3ZM524.95,126.81h4.59v-12.55c0-7,3.2-11.1,6.34-11.1,1.45,0,2.35.54,3.08,2.17l.48.12,3.92-2.29c-1.03-2.84-3.08-4.28-5.55-4.28-3.68,0-6.46,1.93-8.75,6.58v-5.43h-4.1v26.79ZM490.68,124.03c-2.72,0-4.1-1.33-4.1-3.56,0-3.14,3.14-5.01,11.65-6.4v6.64c-1.99,2.05-4.59,3.32-7.54,3.32M505.94,123.37c-.78.3-1.21.42-1.75.42-1.03,0-1.39-.36-1.39-1.57v-14.36c0-5.79-3.44-8.99-9.11-8.99-4.83,0-9.29,2.65-11.77,6.82l3.2,2.11.48-.06c1.99-2.96,4.65-4.71,7.78-4.71s4.83,1.81,4.83,5.85v1.69c-11.77,1.57-16.47,5.07-16.47,10.02,0,4.41,3.08,7.36,7.84,7.36,3.32,0,5.91-1.21,8.81-4.1.18,2.53,1.75,3.92,4.22,3.92,1.57,0,2.35-.18,3.8-.6v-3.56l-.48-.24ZM451.75,127.96c5.25,0,9.78-2.47,12.49-7.36l-3.32-2.23-.48.12c-2.23,3.74-4.89,5.31-8.57,5.31-5.19,0-8.99-3.98-8.99-10.44s3.8-10.32,8.93-10.32c3.5,0,6.15,1.51,8.51,5.25l.48.12,3.38-2.29c-2.78-4.89-7.3-7.24-12.43-7.24-8.09,0-13.7,6.03-13.7,14.54s5.43,14.54,13.7,14.54M413.86,126.81h4.59v-26.79h-4.59v26.79ZM416.15,90.66c1.87,0,3.38-1.45,3.38-3.32s-1.51-3.44-3.38-3.44-3.38,1.51-3.38,3.38,1.51,3.38,3.38,3.38M394.73,123.07l-.48-.24c-1.21.54-2.29.85-3.38.85-3.02,0-4.04-1.27-4.04-5.07v-14.66h8.03v-3.92h-8.03v-10.86h-.6l-3.98,2.41v8.45h-5.13v3.92h5.13v16.05c0,5.13,2.9,7.97,7.72,7.97,1.81,0,3.44-.3,4.95-.84l-.18-4.04ZM354.66,126.81h4.59v-44.23h-4.59v44.23ZM332.82,126.81v-26.79h-4.59v13.4c0,6.16-3.44,10.26-8.09,10.26-4.34,0-6.46-2.53-6.46-8.09v-15.57h-4.59v17.08c0,7.06,3.56,10.86,9.66,10.86,3.62,0,7.24-1.99,9.47-5.79v4.65h4.59ZM277.72,98.87c-3.86,0-7.72,2.17-9.96,6.82-1.15-4.41-4.1-6.82-8.75-6.82-3.92,0-7,2.11-9.17,5.91v-4.77h-4.59v26.79h4.59v-12.97c0-6.16,3.26-10.68,7.78-10.68,4.16,0,6.34,2.6,6.34,8.39v15.27h4.59v-12.97c0-6.16,3.26-10.68,7.78-10.68,4.16,0,6.34,2.6,6.34,8.39v15.27h4.59v-17.32c0-6.82-3.68-10.62-9.53-10.62"/>
    </g>
  </g>
</svg>