<?xml version="1.0" encoding="UTF-8"?>
<svg id="Layer_2" data-name="Layer 2" xmlns="http://www.w3.org/2000/svg" viewBox="0 0 394.69 277.34">
  <defs>
    <style>
      .cls-1 {
        fill: #fff;
      }

      .cls-2 {
        fill: #41a38f;
      }
    </style>
  </defs>
  <g id="Laag_1" data-name="Laag 1">
    <g>
      <polygon class="cls-2" points="79.68 218.91 0 0 0 0 54.13 0 133.81 218.91 79.68 218.91"/>
      <polygon class="cls-1" points="394.69 57.95 340.44 57.95 260.59 277.34 314.84 277.34 394.69 57.95"/>
      <polygon class="cls-2" points="163.69 0 217.82 0 297.49 218.91 243.36 218.91 163.69 0"/>
      <polygon class="cls-1" points="230.64 57.95 176.39 57.95 96.54 277.34 150.79 277.34 230.64 57.95"/>
      <polygon class="cls-1" points="311.93 57.95 257.68 57.95 177.83 277.34 232.08 277.34 311.93 57.95"/>
      <polygon class="cls-2" points="82.58 0 136.71 0 216.38 218.91 162.26 218.91 82.58 0"/>
    </g>
  </g>
</svg>