<?xml version="1.0" encoding="UTF-8"?>
<svg id="Layer_2" data-name="Layer 2" xmlns="http://www.w3.org/2000/svg" viewBox="0 0 117.81 38.96">
  <defs>
    <style>
      .cls-1 {
        fill: #fff;
      }
    </style>
  </defs>
  <g id="Laag_1" data-name="Laag 1">
    <path class="cls-1" d="M100.88,19h3.73v-8c0-1.8-.03-3.11-.19-4.78h.05c1.26,1.66,2.31,2.98,3.35,4.24l7.33,8.78h2.66V0h-3.76v7.51c0,1.8.03,3.09.21,4.78h-.08c-1.23-1.69-2.25-2.95-3.27-4.24l-6.6-8.05h-3.43v19ZM85.39,0v19h11.51l.38-3.25h-8.13v-4.86h7.38v-3.14h-7.38V3.25h8.13l-.38-3.25h-11.51ZM69.13,15.62V3.38h1.85c4.91,0,7.22,1.88,7.22,6.01s-2.36,6.23-7.27,6.23h-1.8ZM65.37,19h5.82c6.82,0,10.9-3.57,10.9-9.58s-3.86-9.42-10.87-9.42h-5.85v19ZM53.24,14.25l-.46-.13-2.95,1.21c.64,2.52,2.87,4.19,5.82,4.19,3.65,0,5.72-2.39,5.72-6.68V0h-3.76v12.75c0,2.31-.81,3.35-2.2,3.35-1.13,0-1.85-.64-2.17-1.85M43.61,19h3.76V0h-3.76v19ZM28.12,0v19h11.51l.38-3.25h-8.13v-4.86h7.38v-3.14h-7.38V3.25h8.13l-.38-3.25h-11.51ZM5.85,19.24h3.11l2.82-8.86c.35-1.07.7-2.23,1.05-3.46h.11c.38,1.23.72,2.39,1.07,3.49l2.79,8.83h3.11L25.76,0h-4.13l-2.47,9.5c-.32,1.21-.67,2.58-.99,4.13h-.08c-.4-1.45-.8-2.79-1.21-4.16L13.96.11h-2.15l-2.93,9.37c-.4,1.37-.8,2.71-1.21,4.16h-.08c-.32-1.56-.67-2.93-.99-4.13L4.13,0H0l5.85,19.24Z"/>
    <path class="cls-1" d="M113.34,30.27c1.6,0,2.67.99,2.77,2.62h-5.67c.25-1.66,1.36-2.62,2.9-2.62M117.79,34.19c.02-.17.02-.23.02-.36,0-3.17-1.78-5-4.47-5s-4.66,2.02-4.66,5.08,1.93,5.04,4.77,5.04c1.83,0,3.3-.86,4.24-2.46l-1.15-.78-.17.04c-.78,1.2-1.64,1.74-2.86,1.74-1.76,0-3.13-1.22-3.13-3.23v-.08h7.41ZM97.32,38.56h1.6v-4.37c0-2.44,1.11-3.86,2.2-3.86.5,0,.82.19,1.07.76l.17.04,1.36-.8c-.36-.99-1.07-1.49-1.93-1.49-1.28,0-2.25.67-3.04,2.29v-1.89h-1.43v9.32ZM85.39,37.59c-.94,0-1.43-.46-1.43-1.24,0-1.09,1.09-1.74,4.05-2.23v2.31c-.69.71-1.6,1.15-2.62,1.15M90.7,37.36c-.27.11-.42.15-.61.15-.36,0-.48-.13-.48-.55v-5c0-2.02-1.2-3.13-3.17-3.13-1.68,0-3.23.92-4.09,2.37l1.11.73.17-.02c.69-1.03,1.62-1.64,2.71-1.64s1.68.63,1.68,2.04v.59c-4.09.55-5.73,1.76-5.73,3.49,0,1.53,1.07,2.56,2.73,2.56,1.15,0,2.06-.42,3.07-1.43.06.88.61,1.36,1.47,1.36.55,0,.82-.06,1.32-.21v-1.24l-.17-.08ZM71.85,38.96c1.83,0,3.4-.86,4.35-2.56l-1.15-.78-.17.04c-.78,1.3-1.7,1.85-2.98,1.85-1.81,0-3.13-1.39-3.13-3.63s1.32-3.59,3.11-3.59c1.22,0,2.14.52,2.96,1.83l.17.04,1.18-.8c-.97-1.7-2.54-2.52-4.33-2.52-2.81,0-4.77,2.1-4.77,5.06s1.89,5.06,4.77,5.06M58.66,38.56h1.6v-9.32h-1.6v9.32ZM59.46,25.98c.65,0,1.18-.5,1.18-1.15s-.52-1.2-1.18-1.2-1.18.53-1.18,1.18.52,1.18,1.18,1.18M52.01,37.26l-.17-.08c-.42.19-.8.29-1.18.29-1.05,0-1.41-.44-1.41-1.76v-5.1h2.79v-1.36h-2.79v-3.78h-.21l-1.39.84v2.94h-1.78v1.36h1.78v5.59c0,1.78,1.01,2.77,2.69,2.77.63,0,1.2-.11,1.72-.29l-.06-1.41ZM38.07,38.56h1.6v-15.39h-1.6v15.39ZM30.47,38.56v-9.32h-1.6v4.66c0,2.14-1.2,3.57-2.81,3.57-1.51,0-2.25-.88-2.25-2.81v-5.42h-1.6v5.94c0,2.46,1.24,3.78,3.36,3.78,1.26,0,2.52-.69,3.3-2.02v1.62h1.6ZM11.3,28.84c-1.34,0-2.69.76-3.46,2.37-.4-1.53-1.43-2.37-3.04-2.37-1.36,0-2.44.73-3.19,2.06v-1.66H0v9.32h1.6v-4.51c0-2.14,1.13-3.72,2.71-3.72,1.45,0,2.2.9,2.2,2.92v5.31h1.6v-4.51c0-2.14,1.13-3.72,2.71-3.72,1.45,0,2.2.9,2.2,2.92v5.31h1.6v-6.03c0-2.37-1.28-3.7-3.32-3.7"/>
  </g>
</svg>